<svg width="514" height="241" viewBox="0 0 514 241" fill="none" xmlns="http://www.w3.org/2000/svg">
<path d="M230.275 157.844C230.192 157.844 230.121 157.815 230.063 157.756C230.004 157.698 229.975 157.627 229.975 157.544V149.406C229.975 149.315 230.004 149.24 230.063 149.181C230.121 149.123 230.192 149.094 230.275 149.094H231.238C231.354 149.094 231.438 149.123 231.488 149.181C231.546 149.231 231.583 149.269 231.6 149.294L235.2 154.894V149.406C235.2 149.315 235.225 149.24 235.275 149.181C235.333 149.123 235.408 149.094 235.5 149.094H236.55C236.642 149.094 236.717 149.123 236.775 149.181C236.833 149.24 236.863 149.315 236.863 149.406V157.531C236.863 157.623 236.833 157.698 236.775 157.756C236.717 157.815 236.646 157.844 236.563 157.844H235.588C235.471 157.844 235.388 157.815 235.338 157.756C235.288 157.698 235.25 157.66 235.225 157.644L231.638 152.169V157.544C231.638 157.627 231.608 157.698 231.55 157.756C231.492 157.815 231.417 157.844 231.325 157.844H230.275ZM241.538 157.969C240.871 157.969 240.309 157.852 239.85 157.619C239.4 157.385 239.055 157.056 238.813 156.631C238.58 156.206 238.446 155.71 238.413 155.144C238.405 154.994 238.4 154.81 238.4 154.594C238.4 154.377 238.405 154.194 238.413 154.044C238.446 153.469 238.584 152.973 238.825 152.556C239.075 152.131 239.425 151.802 239.875 151.569C240.334 151.335 240.888 151.219 241.538 151.219C242.188 151.219 242.738 151.335 243.188 151.569C243.646 151.802 243.996 152.131 244.238 152.556C244.488 152.973 244.63 153.469 244.663 154.044C244.671 154.194 244.675 154.377 244.675 154.594C244.675 154.81 244.671 154.994 244.663 155.144C244.63 155.71 244.492 156.206 244.25 156.631C244.017 157.056 243.671 157.385 243.213 157.619C242.763 157.852 242.205 157.969 241.538 157.969ZM241.538 156.731C241.98 156.731 242.321 156.594 242.563 156.319C242.805 156.035 242.938 155.623 242.963 155.081C242.971 154.956 242.975 154.794 242.975 154.594C242.975 154.394 242.971 154.231 242.963 154.106C242.938 153.565 242.805 153.156 242.563 152.881C242.321 152.598 241.98 152.456 241.538 152.456C241.096 152.456 240.755 152.598 240.513 152.881C240.271 153.156 240.138 153.565 240.113 154.106C240.105 154.231 240.1 154.394 240.1 154.594C240.1 154.794 240.105 154.956 240.113 155.081C240.138 155.623 240.271 156.035 240.513 156.319C240.755 156.594 241.096 156.731 241.538 156.731ZM249.217 157.844C249.133 157.844 249.063 157.815 249.004 157.756C248.946 157.698 248.917 157.627 248.917 157.544V151.644C248.917 151.56 248.946 151.49 249.004 151.431C249.063 151.373 249.133 151.344 249.217 151.344H250.254C250.346 151.344 250.417 151.373 250.467 151.431C250.525 151.49 250.554 151.56 250.554 151.644V157.544C250.554 157.627 250.525 157.698 250.467 157.756C250.417 157.815 250.346 157.844 250.254 157.844H249.217ZM249.167 150.269C249.083 150.269 249.013 150.24 248.954 150.181C248.896 150.123 248.867 150.052 248.867 149.969V149.069C248.867 148.985 248.896 148.915 248.954 148.856C249.013 148.798 249.083 148.769 249.167 148.769H250.304C250.396 148.769 250.471 148.798 250.529 148.856C250.588 148.915 250.617 148.985 250.617 149.069V149.969C250.617 150.052 250.588 150.123 250.529 150.181C250.471 150.24 250.396 150.269 250.304 150.269H249.167ZM252.757 157.844C252.674 157.844 252.603 157.815 252.544 157.756C252.486 157.698 252.457 157.627 252.457 157.544V151.644C252.457 151.56 252.486 151.49 252.544 151.431C252.603 151.373 252.674 151.344 252.757 151.344H253.732C253.815 151.344 253.886 151.373 253.944 151.431C254.003 151.49 254.032 151.56 254.032 151.644V152.069C254.207 151.835 254.44 151.64 254.732 151.481C255.032 151.315 255.386 151.227 255.794 151.219C256.744 151.202 257.407 151.573 257.782 152.331C257.974 151.998 258.249 151.731 258.607 151.531C258.974 151.323 259.378 151.219 259.819 151.219C260.253 151.219 260.644 151.319 260.994 151.519C261.353 151.719 261.632 152.023 261.832 152.431C262.04 152.831 262.144 153.34 262.144 153.956V157.544C262.144 157.627 262.115 157.698 262.057 157.756C261.999 157.815 261.928 157.844 261.844 157.844H260.819C260.736 157.844 260.665 157.815 260.607 157.756C260.549 157.698 260.519 157.627 260.519 157.544V154.056C260.519 153.681 260.465 153.385 260.357 153.169C260.249 152.944 260.103 152.785 259.919 152.694C259.736 152.602 259.532 152.556 259.307 152.556C259.124 152.556 258.94 152.602 258.757 152.694C258.574 152.785 258.424 152.944 258.307 153.169C258.19 153.385 258.132 153.681 258.132 154.056V157.544C258.132 157.627 258.103 157.698 258.044 157.756C257.986 157.815 257.915 157.844 257.832 157.844H256.807C256.724 157.844 256.653 157.815 256.594 157.756C256.536 157.698 256.507 157.627 256.507 157.544V154.056C256.507 153.681 256.449 153.385 256.332 153.169C256.215 152.944 256.065 152.785 255.882 152.694C255.699 152.602 255.503 152.556 255.294 152.556C255.103 152.556 254.915 152.606 254.732 152.706C254.549 152.798 254.399 152.952 254.282 153.169C254.165 153.385 254.107 153.681 254.107 154.056V157.544C254.107 157.627 254.078 157.698 254.019 157.756C253.961 157.815 253.89 157.844 253.807 157.844H252.757ZM265.624 157.969C265.19 157.969 264.799 157.885 264.449 157.719C264.099 157.544 263.819 157.315 263.611 157.031C263.411 156.74 263.311 156.415 263.311 156.056C263.311 155.473 263.549 155.01 264.024 154.669C264.499 154.319 265.119 154.085 265.886 153.969L267.599 153.719V153.456C267.599 153.106 267.511 152.835 267.336 152.644C267.161 152.452 266.861 152.356 266.436 152.356C266.136 152.356 265.89 152.419 265.699 152.544C265.515 152.66 265.378 152.819 265.286 153.019C265.219 153.127 265.124 153.181 264.999 153.181H264.011C263.919 153.181 263.849 153.156 263.799 153.106C263.757 153.056 263.736 152.99 263.736 152.906C263.744 152.773 263.799 152.61 263.899 152.419C264.007 152.227 264.165 152.044 264.374 151.869C264.59 151.685 264.869 151.531 265.211 151.406C265.553 151.281 265.965 151.219 266.449 151.219C266.974 151.219 267.415 151.285 267.774 151.419C268.14 151.544 268.432 151.715 268.649 151.931C268.865 152.148 269.024 152.402 269.124 152.694C269.224 152.985 269.274 153.294 269.274 153.619V157.544C269.274 157.627 269.244 157.698 269.186 157.756C269.128 157.815 269.057 157.844 268.974 157.844H267.961C267.869 157.844 267.794 157.815 267.736 157.756C267.686 157.698 267.661 157.627 267.661 157.544V157.056C267.553 157.206 267.407 157.352 267.224 157.494C267.04 157.635 266.815 157.752 266.549 157.844C266.29 157.927 265.982 157.969 265.624 157.969ZM266.049 156.781C266.34 156.781 266.603 156.719 266.836 156.594C267.078 156.469 267.265 156.277 267.399 156.019C267.54 155.752 267.611 155.419 267.611 155.019V154.756L266.361 154.956C265.869 155.031 265.503 155.152 265.261 155.319C265.019 155.485 264.899 155.69 264.899 155.931C264.899 156.115 264.953 156.273 265.061 156.406C265.178 156.531 265.324 156.627 265.499 156.694C265.674 156.752 265.857 156.781 266.049 156.781ZM273.815 160.594C273.206 160.594 272.706 160.515 272.315 160.356C271.923 160.198 271.615 160.006 271.39 159.781C271.165 159.556 271.002 159.331 270.902 159.106C270.811 158.89 270.761 158.719 270.752 158.594C270.744 158.51 270.769 158.435 270.827 158.369C270.894 158.31 270.969 158.281 271.052 158.281H272.14C272.223 158.281 272.29 158.298 272.34 158.331C272.39 158.373 272.431 158.444 272.465 158.544C272.515 158.652 272.581 158.769 272.665 158.894C272.748 159.019 272.873 159.123 273.04 159.206C273.215 159.298 273.452 159.344 273.752 159.344C274.069 159.344 274.336 159.298 274.552 159.206C274.769 159.115 274.931 158.96 275.04 158.744C275.156 158.527 275.215 158.227 275.215 157.844V156.994C275.015 157.235 274.756 157.431 274.44 157.581C274.131 157.731 273.748 157.806 273.29 157.806C272.848 157.806 272.461 157.735 272.127 157.594C271.802 157.444 271.531 157.24 271.315 156.981C271.098 156.715 270.931 156.402 270.815 156.044C270.706 155.685 270.644 155.29 270.627 154.856C270.619 154.631 270.619 154.406 270.627 154.181C270.644 153.765 270.706 153.377 270.815 153.019C270.931 152.66 271.098 152.348 271.315 152.081C271.531 151.806 271.802 151.594 272.127 151.444C272.461 151.294 272.848 151.219 273.29 151.219C273.765 151.219 274.165 151.31 274.49 151.494C274.815 151.669 275.081 151.89 275.29 152.156V151.656C275.29 151.565 275.319 151.49 275.377 151.431C275.436 151.373 275.506 151.344 275.59 151.344H276.602C276.686 151.344 276.756 151.373 276.815 151.431C276.873 151.49 276.902 151.565 276.902 151.656L276.915 157.681C276.915 158.281 276.802 158.798 276.577 159.231C276.352 159.665 276.011 159.998 275.552 160.231C275.102 160.473 274.523 160.594 273.815 160.594ZM273.752 156.481C274.094 156.481 274.369 156.406 274.577 156.256C274.786 156.106 274.94 155.91 275.04 155.669C275.14 155.427 275.198 155.181 275.215 154.931C275.223 154.823 275.227 154.685 275.227 154.519C275.227 154.352 275.223 154.219 275.215 154.119C275.198 153.86 275.14 153.615 275.04 153.381C274.94 153.14 274.786 152.944 274.577 152.794C274.369 152.635 274.094 152.556 273.752 152.556C273.411 152.556 273.136 152.635 272.927 152.794C272.719 152.944 272.569 153.144 272.477 153.394C272.394 153.644 272.344 153.919 272.327 154.219C272.311 154.419 272.311 154.623 272.327 154.831C272.344 155.123 272.394 155.398 272.477 155.656C272.569 155.906 272.719 156.106 272.927 156.256C273.136 156.406 273.411 156.481 273.752 156.481ZM281.38 157.969C280.455 157.969 279.722 157.702 279.18 157.169C278.638 156.635 278.347 155.877 278.305 154.894C278.297 154.81 278.292 154.706 278.292 154.581C278.292 154.448 278.297 154.344 278.305 154.269C278.338 153.635 278.48 153.094 278.73 152.644C278.988 152.185 279.342 151.835 279.792 151.594C280.242 151.344 280.772 151.219 281.38 151.219C282.055 151.219 282.622 151.36 283.08 151.644C283.538 151.919 283.884 152.306 284.117 152.806C284.351 153.298 284.467 153.869 284.467 154.519V154.781C284.467 154.865 284.438 154.935 284.38 154.994C284.322 155.052 284.247 155.081 284.155 155.081H280.005C280.005 155.081 280.005 155.094 280.005 155.119C280.005 155.144 280.005 155.165 280.005 155.181C280.013 155.473 280.067 155.744 280.167 155.994C280.276 156.235 280.43 156.431 280.63 156.581C280.838 156.731 281.084 156.806 281.367 156.806C281.601 156.806 281.797 156.773 281.955 156.706C282.113 156.631 282.242 156.548 282.342 156.456C282.442 156.365 282.513 156.29 282.555 156.231C282.63 156.131 282.688 156.073 282.73 156.056C282.78 156.031 282.851 156.019 282.942 156.019H284.017C284.101 156.019 284.167 156.044 284.217 156.094C284.276 156.144 284.301 156.206 284.292 156.281C284.284 156.415 284.213 156.577 284.08 156.769C283.955 156.96 283.772 157.148 283.53 157.331C283.288 157.515 282.984 157.669 282.617 157.794C282.259 157.91 281.847 157.969 281.38 157.969ZM280.005 154.031H282.767V153.994C282.767 153.669 282.713 153.385 282.605 153.144C282.497 152.894 282.338 152.702 282.13 152.569C281.922 152.427 281.672 152.356 281.38 152.356C281.088 152.356 280.838 152.427 280.63 152.569C280.422 152.702 280.263 152.894 280.155 153.144C280.055 153.385 280.005 153.669 280.005 153.994V154.031Z" fill="#BCC0C2"/>
<path d="M229 109.125C229 93.592 241.592 81 257.125 81V81C272.658 81 285.25 93.592 285.25 109.125V138.031H229V109.125Z" fill="#414344"/>
<rect x="245.463" y="97.4634" width="4.80183" height="10.2896" rx="2.40091" fill="#C4C4C4"/>
<rect x="264.671" y="97.4634" width="4.80183" height="10.2896" rx="2.40091" fill="#C4C4C4"/>
<path d="M250.951 113.927L257.468 106.038L264.328 113.927L257.468 120.101L250.951 113.927Z" fill="#C4C4C4"/>
<path d="M250.608 113.927H264.671" stroke="#414344" stroke-width="0.685976"/>
</svg>
