<?xml version="1.0" encoding="UTF-8"?>
<!DOCTYPE svg PUBLIC "-//W3C//DTD SVG 1.1//EN" "http://www.w3.org/Graphics/SVG/1.1/DTD/svg11.dtd">
<svg xmlns="http://www.w3.org/2000/svg" version="1.1" width="457px" height="456px" style="shape-rendering:geometricPrecision; text-rendering:geometricPrecision; image-rendering:optimizeQuality; fill-rule:evenodd; clip-rule:evenodd" xmlns:xlink="http://www.w3.org/1999/xlink">
<g><path style="opacity:0.992" fill="#519aba" d="M 40.5,-0.5 C 165.167,-0.5 289.833,-0.5 414.5,-0.5C 435.818,5.31865 449.318,18.9853 455,40.5C 455.167,102.001 455.667,163.335 456.5,224.5C 456.5,225.833 456.5,227.167 456.5,228.5C 455.667,290.332 455.167,352.332 455,414.5C 449.318,436.015 435.818,449.681 414.5,455.5C 289.833,455.5 165.167,455.5 40.5,455.5C 19.1667,449.5 5.5,435.833 -0.5,414.5C -0.5,289.833 -0.5,165.167 -0.5,40.5C 5.5,19.1667 19.1667,5.5 40.5,-0.5 Z M 50.5,30.5 C 168.5,30.3333 286.5,30.5 404.5,31C 415.665,32.3202 422.165,38.4868 424,49.5C 424.667,97.8333 424.667,146.167 424,194.5C 414.065,185.897 403.565,178.063 392.5,171C 386.369,169.734 380.702,170.734 375.5,174C 364.535,186.633 353.202,198.967 341.5,211C 321.167,211.333 300.833,211.667 280.5,212C 277.438,213.061 274.938,214.894 273,217.5C 254.361,256.777 235.195,295.777 215.5,334.5C 200.353,246.282 185.853,157.949 172,69.5C 168.052,59.7769 160.886,56.2769 150.5,59C 147.438,60.0608 144.938,61.8941 143,64.5C 117,113.167 91,161.833 65,210.5C 53.5809,211.488 42.0809,211.821 30.5,211.5C 30.3333,157.832 30.5,104.166 31,50.5C 32.679,38.989 39.179,32.3223 50.5,30.5 Z M 147.5,123.5 C 162.309,210.974 176.809,298.641 191,386.5C 192.854,399.687 200.354,404.854 213.5,402C 216.562,400.939 219.062,399.106 221,396.5C 246.167,345.5 271.333,294.5 296.5,243.5C 315.825,242.667 335.158,242.167 354.5,242C 355.833,241.333 357.167,240.667 358.5,240C 368.667,229.167 378.833,218.333 389,207.5C 400.667,216.833 412.333,226.167 424,235.5C 424.667,292.167 424.667,348.833 424,405.5C 422.5,416.333 416.333,422.5 405.5,424C 285.132,424.991 164.798,424.657 44.5,423C 36.4763,419.469 31.9763,413.303 31,404.5C 30.5,350.501 30.3333,296.501 30.5,242.5C 45.0205,242.226 59.5205,242.559 74,243.5C 78.5858,243.195 82.5858,241.528 86,238.5C 107.034,200.431 127.534,162.097 147.5,123.5 Z"/></g>
</svg>
